999
DXF generated by OpenJsCad
  0
SECTION
  2
HEADER
  0
ENDSEC
  0
SECTION
  2
TABLES
  0
TABLE
  2
LTYPE
  70
1
  0
LTYPE
  2
CONTINUOUS
  3
Solid Line
  72
65
  73
0
  40
0.0
  0
ENDTAB
  0
TABLE
  2
LAYER
  70
1
  0
LAYER
  2
OpenJsCad
  62
7
  6
continuous
  0
ENDTAB
  0
TABLE
  2
STYLE
  70
0
  0
ENDTAB
  0
TABLE
  2
VIEW
  70
0
  0
ENDTAB
  0
ENDSEC
  0
SECTION
  2
BLOCKS
  0
ENDSEC
  0
SECTION
  2
ENTITIES
  0
LWPOLYLINE
  8
OpenJsCad
  90
495
  70
1
 10
137.2792120732219
 20
-37.913323681511564
 30
0.0
 10
138.45904996939433
 20
-34.12709075389407
 30
0.0
 10
139.17390557115345
 20
-30.226249984001832
 30
0.0
 10
136.35740144303665
 20
-27.892013227533194
 30
0.0
 10
132.6985786588504
 20
-25.326691593493294
 30
0.0
 10
129.54665757890606
 20
-23.475977714996958
 30
0.0
 10
126.98836416496536
 20
-22.23898603941204
 30
0.0
 10
125.09727581376261
 20
-21.50588316175192
 30
0.0
 10
123.12314616920271
 20
-20.91834378317663
 30
0.0
 10
121.47017175832747
 20
-20.099793161292133
 30
0.0
 10
120.74464462221545
 20
-19.22000899128227
 30
0.0
 10
121.83567391331815
 20
-10.23457437598978
 30
0.0
 10
122.75066468252213
 20
-9.55398514355473
 30
0.0
 10
124.55149864700547
 20
-9.154802784275805
 30
0.0
 10
126.60887104860797
 20
-9.056776379510456
 30
0.0
 10
128.6204508113961
 20
-8.797543204109491
 30
0.0
 10
131.40043635279758
 20
-8.208735946275818
 30
0.0
 10
134.90367315577947
 20
-7.166104536582606
 30
0.0
 10
139.07009885046025
 20
-5.550940092052905
 30
0.0
 10
142.36337990738065
 20
-3.9585655698135103
 30
0.0
 10
142.6028290103382
 20
3.004818697764641e-14
 30
0.0
 10
142.36337990738068
 20
3.9585655698135103
 30
0.0
 10
139.07009885046023
 20
5.550940092052942
 30
0.0
 10
134.9036731557811
 20
7.16610453658203
 30
0.0
 10
131.4004363527979
 20
8.208735946276045
 30
0.0
 10
128.62045081139644
 20
8.797543204109658
 30
0.0
 10
126.60887104860804
 20
9.05677637951069
 30
0.0
 10
124.55149864700556
 20
9.154802784276345
 30
0.0
 10
122.7506646825223
 20
9.553985143555163
 30
0.0
 10
121.83567391331819
 20
10.234574375989911
 30
0.0
 10
120.74464462221536
 20
19.220008991282384
 30
0.0
 10
121.4701717583272
 20
20.09979316129251
 30
0.0
 10
123.1231461692025
 20
20.918343783177136
 30
0.0
 10
125.0972758137625
 20
21.505883161752134
 30
0.0
 10
126.988364164965
 20
22.238986039412126
 30
0.0
 10
129.54665757890572
 20
23.475977714997104
 30
0.0
 10
132.698578658849
 20
25.326691593492345
 30
0.0
 10
136.35740144303665
 20
27.892013227533234
 30
0.0
 10
139.17390557115343
 20
30.22624998400183
 30
0.0
 10
138.45904996939433
 20
34.12709075389414
 30
0.0
 10
137.2792120732219
 20
37.91332368151169
 30
0.0
 10
133.70054761193649
 20
38.671292950335236
 30
0.0
 10
129.268656523798
 20
39.24243271872135
 30
0.0
 10
125.61769938701765
 20
39.416387711892604
 30
0.0
 10
122.77758437298539
 20
39.32279121437693
 30
0.0
 10
120.76241890262969
 20
39.09308899763882
 30
0.0
 10
118.74137074972137
 20
38.695905490261346
 30
0.0
 10
116.89733515588075
 20
38.65252055918204
 30
0.0
 10
115.84605669123457
 20
39.09436148169377
 30
0.0
 10
112.636375474595
 20
47.557595297871345
 30
0.0
 10
113.13027397764768
 20
48.585444547380895
 30
0.0
 10
114.53932397047241
 20
49.775792245037735
 30
0.0
 10
116.31548161871734
 20
50.81869894435835
 30
0.0
 10
117.97617537718882
 20
51.983066249748305
 30
0.0
 10
120.16409794946873
 20
53.796352883181385
 30
0.0
 10
122.78152510997403
 20
56.34759246693175
 30
0.0
 10
125.72010750273132
 20
59.713984121678116
 30
0.0
 10
127.8961497196943
 20
62.65442575669534
 30
0.0
 10
126.26853422239833
 20
66.27083904009955
 30
0.0
 10
124.21687542300036
 20
69.66469723016476
 30
0.0
 10
120.56080652792379
 20
69.5442108267746
 30
0.0
 10
116.12101544709992
 20
69.03813335168775
 30
0.0
 10
112.5345183346229
 20
68.33330229643377
 30
0.0
 10
109.79933100917734
 20
67.56274153179498
 30
0.0
 10
107.89769392356294
 20
66.85745338082097
 30
0.0
 10
106.03042599178468
 20
65.98814282304583
 30
0.0
 10
104.25035741450405
 20
65.50471197610491
 30
0.0
 10
103.1238877375393
 20
65.68212640030364
 30
0.0
 10
97.98208960095755
 20
73.13130703057334
 30
0.0
 10
98.21565588520168
 20
74.24748649728083
 30
0.0
 10
99.29889259608117
 20
75.7404525892599
 30
0.0
 10
100.77385442156545
 20
77.17811666277323
 30
0.0
 10
102.10764010243975
 20
78.70607960040684
 30
0.0
 10
103.79803772593289
 20
80.99027956358162
 30
0.0
 10
105.72885561439227
 20
84.09377608135811
 30
0.0
 10
107.77641788836453
 20
88.06559531017187
 30
0.0
 10
109.18553453011543
 20
91.441354043981
 30
0.0
 10
106.73975023384385
 20
94.56316704599308
 30
0.0
 10
103.93550548316499
 20
97.36741179667196
 30
0.0
 10
100.41450958920943
 20
96.37547195288286
 30
0.0
 10
96.2248430353337
 20
94.82158861765829
 30
0.0
 10
92.91124012295057
 20
93.27893373295386
 30
0.0
 10
90.43993963144521
 20
91.87619089195834
 30
0.0
 10
88.76234716581848
 20
90.73630559046492
 30
0.0
 10
87.15737828012246
 20
89.4453891520947
 30
0.0
 10
85.54472783482737
 20
88.55000763291676
 30
0.0
 10
84.40853326861856
 20
88.45268487734326
 30
0.0
 10
77.63344083011698
 20
94.45489302014366
 30
0.0
 10
77.5931008720912
 20
95.59453441059134
 30
0.0
 10
78.28757052079439
 20
97.30335313433777
 30
0.0
 10
79.37561710348893
 20
99.0522227717875
 30
0.0
 10
80.3049799311073
 20
100.85498168964878
 30
0.0
 10
81.39961284028162
 20
103.4773455834346
 30
0.0
 10
82.53160933925531
 20
106.95273509837489
 30
0.0
 10
83.5691546176653
 20
111.29915420465288
 30
0.0
 10
84.12945294691616
 20
114.91404321002864
 30
0.0
 10
81.00763994490406
 20
117.35982750630022
 30
0.0
 10
77.61378175483885
 20
119.4114863056982
 30
0.0
 10
74.43248634506166
 20
117.60574095967657
 30
0.0
 10
70.73643250942706
 20
115.09435781562145
 30
0.0
 10
67.88829835394901
 20
112.8035325960432
 30
0.0
 10
65.82450769813836
 20
110.85012999384685
 30
0.0
 10
64.46845542880102
 20
109.34189353224232
 30
0.0
 10
63.21906054699934
 20
107.70439458438477
 30
0.0
 10
61.86754961582447
 20
106.44909871228501
 30
0.0
 10
60.78766165866045
 20
106.0826948217394
 30
0.0
 10
52.773018664305766
 20
110.28910395694986
 30
0.0
 10
52.461116875740736
 20
111.38597545595279
 30
0.0
 10
52.72645941057944
 20
113.21133647854577
 30
0.0
 10
53.364357437986456
 20
115.1697737334858
 30
0.0
 10
53.83528622290418
 20
117.14255883603072
 30
0.0
 10
54.2705383319072
 20
119.95068440282566
 30
0.0
 10
54.53792591951469
 20
123.5959899088483
 30
0.0
 10
54.50515584210485
 20
128.06441081272428
 30
0.0
 10
54.18407335656117
 20
131.70834588026113
 30
0.0
 10
50.567660073157
 20
133.3359613775571
 30
0.0
 10
46.78142714553945
 20
134.51579927372953
 30
0.0
 10
44.124717545618566
 20
132.00119178136887
 30
0.0
 10
41.13707764254308
 20
128.67826128830936
 30
0.0
 10
38.91993544854008
 20
125.77240016880828
 30
0.0
 10
37.383594639766045
 20
123.38186246432122
 30
0.0
 10
36.42789139556253
 20
121.59292806353757
 30
0.0
 10
35.60668080681992
 20
119.70401209297566
 30
0.0
 10
34.59485429254279
 20
118.1617551012257
 30
0.0
 10
33.634032107260914
 20
117.54756413800251
 30
0.0
 10
24.845620475843063
 20
119.71371305635971
 30
0.0
 10
24.280283454973315
 20
120.70406847936152
 30
0.0
 10
24.101078132303584
 20
122.5398884530853
 30
0.0
 10
24.251755289735183
 20
124.59407607088829
 30
0.0
 10
24.2368813627293
 20
126.62223625873901
 30
0.0
 10
23.987457401062805
 20
129.45292544772207
 30
0.0
 10
23.374696482626696
 20
133.05629503896344
 30
0.0
 10
22.27351552718171
 20
137.38702935955322
 30
0.0
 10
21.089712373815942
 20
140.84823822829102
 30
0.0
 10
17.188871603923605
 20
141.56309383005015
 30
0.0
 10
13.230306034110123
 20
141.80254293300774
 30
0.0
 10
11.252580549246462
 20
138.7252131415377
 30
0.0
 10
9.14698535026768
 20
134.78385194136953
 30
0.0
 10
7.689687363071207
 20
131.43183300783565
 30
0.0
 10
6.770082944768107
 20
128.74308956319163
 30
0.0
 10
6.270270724411579
 20
126.77742358809043
 30
0.0
 10
5.924970203166704
 20
124.74686752510304
 30
0.0
 10
5.311631784957381
 20
123.0072797841873
 30
0.0
 10
4.525714864519694
 20
122.18099629457578
 30
0.0
 10
-4.525714864519832
 20
122.1809962945757
 30
0.0
 10
-5.311631784957802
 20
123.00727978418706
 30
0.0
 10
-5.924970203167244
 20
124.74686752510289
 30
0.0
 10
-6.2702707244118185
 20
126.77742358809033
 30
0.0
 10
-6.770082944768247
 20
128.7430895631913
 30
0.0
 10
-7.689687363071406
 20
131.43183300783534
 30
0.0
 10
-9.146985350266933
 20
134.783851941368
 30
0.0
 10
-11.252580549246519
 20
138.7252131415377
 30
0.0
 10
-13.230306034110141
 20
141.8025429330077
 30
0.0
 10
-17.188871603923683
 20
141.56309383005018
 30
0.0
 10
-21.089712373815924
 20
140.84823822829105
 30
0.0
 10
-22.273515527181726
 20
137.3870293595532
 30
0.0
 10
-23.3746964826263
 20
133.05629503896512
 30
0.0
 10
-23.987457401063047
 20
129.45292544772235
 30
0.0
 10
-24.236881362729488
 20
126.62223625873932
 30
0.0
 10
-24.251755289735407
 20
124.59407607088835
 30
0.0
 10
-24.101078132304114
 20
122.53988845308533
 30
0.0
 10
-24.280283454973755
 20
120.70406847936167
 30
0.0
 10
-24.845620475843184
 20
119.71371305635974
 30
0.0
 10
-33.63403210726101
 20
117.54756413800244
 30
0.0
 10
-34.59485429254311
 20
118.16175510122538
 30
0.0
 10
-35.60668080682037
 20
119.7040120929754
 30
0.0
 10
-36.42789139556271
 20
121.59292806353743
 30
0.0
 10
-37.383594639766066
 20
123.38186246432086
 30
0.0
 10
-38.919935448540166
 20
125.77240016880793
 30
0.0
 10
-41.13707764254195
 20
128.67826128830805
 30
0.0
 10
-44.124717545618594
 20
132.00119178136887
 30
0.0
 10
-46.781427145539425
 20
134.51579927372953
 30
0.0
 10
-50.56766007315702
 20
133.3359613775571
 30
0.0
 10
-54.184073356561164
 20
131.70834588026116
 30
0.0
 10
-54.50515584210488
 20
128.06441081272425
 30
0.0
 10
-54.53792591951473
 20
123.59598990885003
 30
0.0
 10
-54.27053833190751
 20
119.95068440282587
 30
0.0
 10
-53.835286222904436
 20
117.14255883603097
 30
0.0
 10
-53.3643574379867
 20
115.16977373348578
 30
0.0
 10
-52.726459410579956
 20
113.21133647854568
 30
0.0
 10
-52.46111687574119
 20
111.38597545595283
 30
0.0
 10
-52.7730186643059
 20
110.28910395694986
 30
0.0
 10
-60.78766165866053
 20
106.0826948217393
 30
0.0
 10
-61.86754961582472
 20
106.44909871228464
 30
0.0
 10
-63.21906054699974
 20
107.70439458438442
 30
0.0
 10
-64.46845542880116
 20
109.34189353224214
 30
0.0
 10
-65.82450769813829
 20
110.85012999384651
 30
0.0
 10
-67.88829835394901
 20
112.80353259604281
 30
0.0
 10
-70.73643250942564
 20
115.09435781562047
 30
0.0
 10
-74.4324863450617
 20
117.6057409596766
 30
0.0
 10
-77.61378175483884
 20
119.41148630569822
 30
0.0
 10
-81.00763994490414
 20
117.35982750630018
 30
0.0
 10
-84.12945294691617
 20
114.91404321002865
 30
0.0
 10
-83.56915461766532
 20
111.29915420465284
 30
0.0
 10
-82.53160933925577
 20
106.95273509837655
 30
0.0
 10
-81.39961284028197
 20
103.47734558343473
 30
0.0
 10
-80.30497993110762
 20
100.85498168964895
 30
0.0
 10
-79.37561710348916
 20
99.05222277178743
 30
0.0
 10
-78.28757052079487
 20
97.30335313433754
 30
0.0
 10
-77.59310087209165
 20
95.59453441059125
 30
0.0
 10
-77.63344083011712
 20
94.45489302014363
 30
0.0
 10
-84.40853326861861
 20
88.45268487734313
 30
0.0
 10
-85.54472783482753
 20
88.55000763291632
 30
0.0
 10
-87.15737828012274
 20
89.44538915209425
 30
0.0
 10
-88.76234716581861
 20
90.73630559046471
 30
0.0
 10
-90.43993963144507
 20
91.876190891958
 30
0.0
 10
-92.91124012295049
 20
93.27893373295348
 30
0.0
 10
-96.2248430353321
 20
94.82158861765767
 30
0.0
 10
-100.41450958920947
 20
96.37547195288285
 30
0.0
 10
-103.93550548316497
 20
97.36741179667195
 30
0.0
 10
-106.73975023384389
 20
94.56316704599301
 30
0.0
 10
-109.18553453011545
 20
91.44135404398098
 30
0.0
 10
-107.77641788836455
 20
88.06559531017182
 30
0.0
 10
-105.7288556143931
 20
84.09377608135961
 30
0.0
 10
-103.79803772593326
 20
80.99027956358164
 30
0.0
 10
-102.1076401024401
 20
78.70607960040691
 30
0.0
 10
-100.77385442156566
 20
77.17811666277308
 30
0.0
 10
-99.2988925960816
 20
75.74045258925955
 30
0.0
 10
-98.21565588520211
 20
74.2474864972806
 30
0.0
 10
-97.98208960095768
 20
73.13130703057325
 30
0.0
 10
-103.12388773753932
 20
65.6821264003035
 30
0.0
 10
-104.25035741450411
 20
65.50471197610443
 30
0.0
 10
-106.03042599178487
 20
65.98814282304531
 30
0.0
 10
-107.897693923563
 20
66.85745338082071
 30
0.0
 10
-109.79933100917711
 20
67.56274153179467
 30
0.0
 10
-112.53451833462272
 20
68.33330229643342
 30
0.0
 10
-116.12101544709822
 20
69.03813335168745
 30
0.0
 10
-120.56080652792383
 20
69.54421082677452
 30
0.0
 10
-124.21687542300035
 20
69.6646972301647
 30
0.0
 10
-126.26853422239833
 20
66.27083904009952
 30
0.0
 10
-127.89614971969426
 20
62.65442575669538
 30
0.0
 10
-125.72010750273131
 20
59.7139841216781
 30
0.0
 10
-122.78152510997516
 20
56.34759246693306
 30
0.0
 10
-120.16409794946905
 20
53.79635288318136
 30
0.0
 10
-117.97617537718916
 20
51.98306624974835
 30
0.0
 10
-116.31548161871748
 20
50.81869894435821
 30
0.0
 10
-114.5393239704727
 20
49.77579224503733
 30
0.0
 10
-113.130273977648
 20
48.585444547380625
 30
0.0
 10
-112.63637547459507
 20
47.55759529787128
 30
0.0
 10
-115.84605669123452
 20
39.09436148169367
 30
0.0
 10
-116.89733515588065
 20
38.65252055918161
 30
0.0
 10
-118.74137074972138
 20
38.69590549026084
 30
0.0
 10
-120.76241890262966
 20
39.09308899763862
 30
0.0
 10
-122.77758437298507
 20
39.32279121437673
 30
0.0
 10
-125.61769938701738
 20
39.41638771189236
 30
0.0
 10
-129.26865652379624
 20
39.24243271872158
 30
0.0
 10
-133.7005476119365
 20
38.67129295033525
 30
0.0
 10
-137.27921207322188
 20
37.91332368151173
 30
0.0
 10
-138.45904996939433
 20
34.12709075389409
 30
0.0
 10
-139.17390557115345
 20
30.22624998400185
 30
0.0
 10
-136.35740144303665
 20
27.892013227533212
 30
0.0
 10
-132.6985786588504
 20
25.32669159349331
 30
0.0
 10
-129.54665757890606
 20
23.475977714996972
 30
0.0
 10
-126.98836416496536
 20
22.238986039412055
 30
0.0
 10
-125.09727581376261
 20
21.505883161751935
 30
0.0
 10
-123.12314616920271
 20
20.918343783176645
 30
0.0
 10
-121.47017175832747
 20
20.099793161292148
 30
0.0
 10
-120.74464462221545
 20
19.220008991282285
 30
0.0
 10
-121.83567391331815
 20
10.234574375989794
 30
0.0
 10
-122.75066468252213
 20
9.553985143554744
 30
0.0
 10
-124.55149864700547
 20
9.154802784275821
 30
0.0
 10
-126.60887104860797
 20
9.056776379510472
 30
0.0
 10
-128.6204508113961
 20
8.797543204109507
 30
0.0
 10
-131.40043635279758
 20
8.208735946275834
 30
0.0
 10
-134.90367315577947
 20
7.166104536582623
 30
0.0
 10
-139.07009885046025
 20
5.5509400920529215
 30
0.0
 10
-142.36337990738065
 20
3.9585655698135276
 30
0.0
 10
-142.6028290103382
 20
-4.425904169284841e-14
 30
0.0
 10
-142.36337990738068
 20
-3.9585655698135245
 30
0.0
 10
-139.07009885046023
 20
-5.550940092052956
 30
0.0
 10
-134.90367315578112
 20
-7.166104536582048
 30
0.0
 10
-131.4004363527979
 20
-8.20873594627606
 30
0.0
 10
-128.62045081139644
 20
-8.797543204109672
 30
0.0
 10
-126.60887104860804
 20
-9.056776379510705
 30
0.0
 10
-124.55149864700556
 20
-9.154802784276356
 30
0.0
 10
-122.75066468252231
 20
-9.553985143555174
 30
0.0
 10
-121.83567391331819
 20
-10.234574375989922
 30
0.0
 10
-120.74464462221536
 20
-19.2200089912824
 30
0.0
 10
-121.4701717583272
 20
-20.099793161292524
 30
0.0
 10
-123.1231461692025
 20
-20.91834378317715
 30
0.0
 10
-125.0972758137625
 20
-21.50588316175215
 30
0.0
 10
-126.988364164965
 20
-22.23898603941214
 30
0.0
 10
-129.54665757890572
 20
-23.475977714997118
 30
0.0
 10
-132.698578658849
 20
-25.32669159349236
 30
0.0
 10
-136.35740144303665
 20
-27.892013227533248
 30
0.0
 10
-139.17390557115343
 20
-30.226249984001843
 30
0.0
 10
-138.4590499693943
 20
-34.12709075389423
 30
0.0
 10
-137.27921207322188
 20
-37.91332368151179
 30
0.0
 10
-133.70054761193646
 20
-38.671292950335335
 30
0.0
 10
-129.26865652379797
 20
-39.24243271872146
 30
0.0
 10
-125.61769938701764
 20
-39.4163877118927
 30
0.0
 10
-122.77758437298536
 20
-39.32279121437701
 30
0.0
 10
-120.76241890262966
 20
-39.09308899763892
 30
0.0
 10
-118.74137074972134
 20
-38.69590549026143
 30
0.0
 10
-116.89733515588071
 20
-38.652520559182115
 30
0.0
 10
-115.84605669123454
 20
-39.09436148169385
 30
0.0
 10
-112.63637547459496
 20
-47.55759529787143
 30
0.0
 10
-113.13027397764765
 20
-48.58544454738098
 30
0.0
 10
-114.53932397047237
 20
-49.77579224503782
 30
0.0
 10
-116.3154816187173
 20
-50.81869894435844
 30
0.0
 10
-117.97617537718878
 20
-51.9830662497484
 30
0.0
 10
-120.16409794946868
 20
-53.79635288318148
 30
0.0
 10
-122.78152510997398
 20
-56.34759246693185
 30
0.0
 10
-125.7201075027313
 20
-59.713984121678216
 30
0.0
 10
-127.89614971969425
 20
-62.654425756695424
 30
0.0
 10
-126.26853422239833
 20
-66.27083904009956
 30
0.0
 10
-124.21687542300033
 20
-69.66469723016478
 30
0.0
 10
-120.56080652792377
 20
-69.54421082677462
 30
0.0
 10
-116.12101544709991
 20
-69.03813335168776
 30
0.0
 10
-112.53451833462289
 20
-68.33330229643379
 30
0.0
 10
-109.79933100917732
 20
-67.562741531795
 30
0.0
 10
-107.89769392356294
 20
-66.857453380821
 30
0.0
 10
-106.03042599178467
 20
-65.98814282304585
 30
0.0
 10
-104.25035741450404
 20
-65.50471197610494
 30
0.0
 10
-103.12388773753929
 20
-65.68212640030366
 30
0.0
 10
-97.98208960095755
 20
-73.13130703057335
 30
0.0
 10
-98.21565588520167
 20
-74.24748649728085
 30
0.0
 10
-99.29889259608117
 20
-75.74045258925992
 30
0.0
 10
-100.77385442156543
 20
-77.17811666277325
 30
0.0
 10
-102.10764010243973
 20
-78.70607960040685
 30
0.0
 10
-103.79803772593287
 20
-80.99027956358164
 30
0.0
 10
-105.72885561439226
 20
-84.09377608135813
 30
0.0
 10
-107.77641788836452
 20
-88.06559531017189
 30
0.0
 10
-109.18553453011542
 20
-91.44135404398101
 30
0.0
 10
-106.73975023384386
 20
-94.56316704599307
 30
0.0
 10
-103.935505483165
 20
-97.36741179667195
 30
0.0
 10
-100.41450958920944
 20
-96.37547195288285
 30
0.0
 10
-96.22484303533372
 20
-94.82158861765828
 30
0.0
 10
-92.91124012295059
 20
-93.27893373295385
 30
0.0
 10
-90.43993963144523
 20
-91.87619089195833
 30
0.0
 10
-88.76234716581851
 20
-90.7363055904649
 30
0.0
 10
-87.15737828012247
 20
-89.44538915209469
 30
0.0
 10
-85.54472783482738
 20
-88.55000763291675
 30
0.0
 10
-84.40853326861857
 20
-88.45268487734324
 30
0.0
 10
-77.633440830117
 20
-94.45489302014364
 30
0.0
 10
-77.59310087209121
 20
-95.59453441059132
 30
0.0
 10
-78.28757052079439
 20
-97.30335313433775
 30
0.0
 10
-79.37561710348895
 20
-99.05222277178748
 30
0.0
 10
-80.30497993110731
 20
-100.85498168964877
 30
0.0
 10
-81.39961284028163
 20
-103.47734558343458
 30
0.0
 10
-82.53160933925534
 20
-106.95273509837487
 30
0.0
 10
-83.56915461766532
 20
-111.29915420465285
 30
0.0
 10
-84.12945294691617
 20
-114.91404321002861
 30
0.0
 10
-81.00763994490408
 20
-117.35982750630018
 30
0.0
 10
-77.61378175483888
 20
-119.41148630569819
 30
0.0
 10
-74.43248634506169
 20
-117.60574095967655
 30
0.0
 10
-70.73643250942709
 20
-115.09435781562142
 30
0.0
 10
-67.88829835394905
 20
-112.80353259604317
 30
0.0
 10
-65.8245076981384
 20
-110.85012999384683
 30
0.0
 10
-64.46845542880106
 20
-109.34189353224231
 30
0.0
 10
-63.21906054699938
 20
-107.70439458438474
 30
0.0
 10
-61.86754961582451
 20
-106.449098712285
 30
0.0
 10
-60.78766165866049
 20
-106.08269482173938
 30
0.0
 10
-52.77301866430581
 20
-110.28910395694984
 30
0.0
 10
-52.46111687574078
 20
-111.38597545595277
 30
0.0
 10
-52.72645941057947
 20
-113.21133647854576
 30
0.0
 10
-53.3643574379865
 20
-115.16977373348578
 30
0.0
 10
-53.83528622290422
 20
-117.1425588360307
 30
0.0
 10
-54.27053833190723
 20
-119.95068440282564
 30
0.0
 10
-54.53792591951474
 20
-123.59598990884828
 30
0.0
 10
-54.5051558421049
 20
-128.06441081272425
 30
0.0
 10
-54.18407335656122
 20
-131.70834588026113
 30
0.0
 10
-50.56766007315692
 20
-133.33596137755714
 30
0.0
 10
-46.78142714553938
 20
-134.51579927372956
 30
0.0
 10
-44.124717545618495
 20
-132.00119178136887
 30
0.0
 10
-41.13707764254302
 20
-128.6782612883094
 30
0.0
 10
-38.91993544854001
 20
-125.77240016880832
 30
0.0
 10
-37.383594639765974
 20
-123.38186246432124
 30
0.0
 10
-36.42789139556246
 20
-121.5929280635376
 30
0.0
 10
-35.606680806819845
 20
-119.70401209297569
 30
0.0
 10
-34.59485429254273
 20
-118.16175510122572
 30
0.0
 10
-33.63403210726085
 20
-117.54756413800254
 30
0.0
 10
-24.845620475843
 20
-119.71371305635972
 30
0.0
 10
-24.28028345497325
 20
-120.70406847936155
 30
0.0
 10
-24.10107813230352
 20
-122.53988845308531
 30
0.0
 10
-24.251755289735115
 20
-124.5940760708883
 30
0.0
 10
-24.236881362729232
 20
-126.62223625873904
 30
0.0
 10
-23.987457401062734
 20
-129.45292544772207
 30
0.0
 10
-23.374696482626625
 20
-133.05629503896344
 30
0.0
 10
-22.273515527181637
 20
-137.38702935955325
 30
0.0
 10
-21.089712373815864
 20
-140.84823822829105
 30
0.0
 10
-17.18887160392359
 20
-141.56309383005015
 30
0.0
 10
-13.230306034110109
 20
-141.80254293300774
 30
0.0
 10
-11.252580549246447
 20
-138.7252131415377
 30
0.0
 10
-9.146985350267668
 20
-134.78385194136953
 30
0.0
 10
-7.689687363071195
 20
-131.43183300783565
 30
0.0
 10
-6.770082944768094
 20
-128.74308956319163
 30
0.0
 10
-6.270270724411566
 20
-126.77742358809043
 30
0.0
 10
-5.9249702031666915
 20
-124.74686752510304
 30
0.0
 10
-5.311631784957369
 20
-123.0072797841873
 30
0.0
 10
-4.525714864519683
 20
-122.18099629457578
 30
0.0
 10
4.525714864519845
 20
-122.1809962945757
 30
0.0
 10
5.3116317849578145
 20
-123.00727978418706
 30
0.0
 10
5.924970203167255
 20
-124.74686752510289
 30
0.0
 10
6.270270724411831
 20
-126.77742358809033
 30
0.0
 10
6.77008294476826
 20
-128.7430895631913
 30
0.0
 10
7.689687363071418
 20
-131.43183300783534
 30
0.0
 10
9.146985350266943
 20
-134.783851941368
 30
0.0
 10
11.252580549246533
 20
-138.7252131415377
 30
0.0
 10
13.230306034110155
 20
-141.8025429330077
 30
0.0
 10
17.18887160392367
 20
-141.56309383005015
 30
0.0
 10
21.08971237381591
 20
-140.84823822829102
 30
0.0
 10
22.27351552718171
 20
-137.3870293595532
 30
0.0
 10
23.374696482626288
 20
-133.05629503896512
 30
0.0
 10
23.987457401063033
 20
-129.45292544772235
 30
0.0
 10
24.236881362729473
 20
-126.62223625873932
 30
0.0
 10
24.251755289735392
 20
-124.59407607088835
 30
0.0
 10
24.1010781323041
 20
-122.53988845308533
 30
0.0
 10
24.28028345497374
 20
-120.70406847936167
 30
0.0
 10
24.84562047584317
 20
-119.71371305635974
 30
0.0
 10
33.63403210726099
 20
-117.54756413800244
 30
0.0
 10
34.5948542925431
 20
-118.16175510122538
 30
0.0
 10
35.606680806820364
 20
-119.7040120929754
 30
0.0
 10
36.427891395562696
 20
-121.59292806353743
 30
0.0
 10
37.38359463976605
 20
-123.38186246432086
 30
0.0
 10
38.91993544854015
 20
-125.77240016880793
 30
0.0
 10
41.13707764254194
 20
-128.67826128830805
 30
0.0
 10
44.12471754561857
 20
-132.00119178136887
 30
0.0
 10
46.78142714553941
 20
-134.51579927372953
 30
0.0
 10
50.56766007315711
 20
-133.33596137755706
 30
0.0
 10
54.184073356561264
 20
-131.7083458802611
 30
0.0
 10
54.50515584210496
 20
-128.06441081272422
 30
0.0
 10
54.53792591951481
 20
-123.59598990884999
 30
0.0
 10
54.27053833190759
 20
-119.95068440282583
 30
0.0
 10
53.83528622290452
 20
-117.14255883603093
 30
0.0
 10
53.364357437986776
 20
-115.16977373348575
 30
0.0
 10
52.72645941058004
 20
-113.21133647854563
 30
0.0
 10
52.461116875741276
 20
-111.38597545595279
 30
0.0
 10
52.77301866430598
 20
-110.28910395694983
 30
0.0
 10
60.78766165866059
 20
-106.08269482173924
 30
0.0
 10
61.86754961582479
 20
-106.44909871228458
 30
0.0
 10
63.2190605469998
 20
-107.70439458438436
 30
0.0
 10
64.46845542880124
 20
-109.3418935322421
 30
0.0
 10
65.82450769813836
 20
-110.85012999384645
 30
0.0
 10
67.88829835394908
 20
-112.80353259604277
 30
0.0
 10
70.73643250942573
 20
-115.09435781562041
 30
0.0
 10
74.43248634506179
 20
-117.60574095967652
 30
0.0
 10
77.61378175483894
 20
-119.41148630569815
 30
0.0
 10
81.00763994490417
 20
-117.35982750630015
 30
0.0
 10
84.1294529469162
 20
-114.9140432100286
 30
0.0
 10
83.56915461766533
 20
-111.29915420465278
 30
0.0
 10
82.5316093392558
 20
-106.95273509837651
 30
0.0
 10
81.399612840282
 20
-103.47734558343468
 30
0.0
 10
80.30497993110765
 20
-100.85498168964891
 30
0.0
 10
79.37561710348918
 20
-99.05222277178738
 30
0.0
 10
78.2875705207949
 20
-97.3033531343375
 30
0.0
 10
77.59310087209167
 20
-95.59453441059121
 30
0.0
 10
77.63344083011715
 20
-94.4548930201436
 30
0.0
 10
84.40853326861863
 20
-88.45268487734309
 30
0.0
 10
85.54472783482754
 20
-88.55000763291628
 30
0.0
 10
87.15737828012277
 20
-89.44538915209421
 30
0.0
 10
88.76234716581862
 20
-90.73630559046467
 30
0.0
 10
90.4399396314451
 20
-91.87619089195796
 30
0.0
 10
92.9112401229505
 20
-93.27893373295343
 30
0.0
 10
96.22484303533211
 20
-94.82158861765762
 30
0.0
 10
100.41450958920949
 20
-96.3754719528828
 30
0.0
 10
103.93550548316499
 20
-97.36741179667189
 30
0.0
 10
106.73975023384381
 20
-94.56316704599313
 30
0.0
 10
109.18553453011535
 20
-91.4413540439811
 30
0.0
 10
107.77641788836445
 20
-88.06559531017191
 30
0.0
 10
105.72885561439303
 20
-84.0937760813597
 30
0.0
 10
103.79803772593317
 20
-80.99027956358174
 30
0.0
 10
102.10764010244003
 20
-78.70607960040701
 30
0.0
 10
100.77385442156557
 20
-77.17811666277319
 30
0.0
 10
99.29889259608152
 20
-75.74045258925963
 30
0.0
 10
98.21565588520204
 20
-74.2474864972807
 30
0.0
 10
97.98208960095761
 20
-73.13130703057335
 30
0.0
 10
103.12388773753926
 20
-65.6821264003036
 30
0.0
 10
104.25035741450404
 20
-65.50471197610455
 30
0.0
 10
106.0304259917848
 20
-65.98814282304541
 30
0.0
 10
107.89769392356293
 20
-66.85745338082083
 30
0.0
 10
109.79933100917705
 20
-67.56274153179479
 30
0.0
 10
112.53451833462266
 20
-68.33330229643353
 30
0.0
 10
116.12101544709816
 20
-69.03813335168758
 30
0.0
 10
120.56080652792376
 20
-69.54421082677464
 30
0.0
 10
124.21687542300026
 20
-69.66469723016483
 30
0.0
 10
126.2685342223984
 20
-66.27083904009937
 30
0.0
 10
127.89614971969436
 20
-62.65442575669523
 30
0.0
 10
125.72010750273137
 20
-59.71398412167796
 30
0.0
 10
122.78152510997525
 20
-56.34759246693291
 30
0.0
 10
120.16409794946914
 20
-53.79635288318122
 30
0.0
 10
117.97617537718924
 20
-51.983066249748205
 30
0.0
 10
116.31548161871754
 20
-50.81869894435807
 30
0.0
 10
114.53932397047276
 20
-49.7757922450372
 30
0.0
 10
113.13027397764807
 20
-48.5854445473805
 30
0.0
 10
112.63637547459513
 20
-47.55759529787115
 30
0.0
 10
115.84605669123458
 20
-39.094361481693525
 30
0.0
 10
116.89733515588071
 20
-38.65252055918147
 30
0.0
 10
118.74137074972144
 20
-38.6959054902607
 30
0.0
 10
120.76241890262972
 20
-39.093088997638475
 30
0.0
 10
122.77758437298513
 20
-39.322791214376586
 30
0.0
 10
125.61769938701745
 20
-39.416387711892206
 30
0.0
 10
129.26865652379632
 20
-39.242432718721425
 30
0.0
 10
133.70054761193654
 20
-38.67129295033509
 30
0.0
 10
137.2792120732219
 20
-37.913323681511564
 30
0.0
  0
ENDSEC
  0
EOF
